<!DOCTYPE svg PUBLIC "-//W3C//DTD SVG 1.1//EN" "http://www.w3.org/Graphics/SVG/1.1/DTD/svg11.dtd">
<!-- Uploaded to: SVG Repo, www.svgrepo.com, Transformed by: SVG Repo Mixer Tools -->
<svg width="231px" height="231px" viewBox="-5.76 -5.76 59.52 59.52" xmlns="http://www.w3.org/2000/svg" fill="#ffffff" stroke="#ffffff" stroke-width="1.056">
<g id="SVGRepo_bgCarrier" stroke-width="0" transform="translate(2.6400000000000006,2.6400000000000006), scale(0.89)">
<path transform="translate(-5.76, -5.76), scale(3.7199999999999998)" fill="#ffffff" d="M9.166.33a2.25 2.25 0 00-2.332 0l-5.25 3.182A2.25 2.25 0 00.5 5.436v5.128a2.25 2.25 0 001.084 1.924l5.25 3.182a2.25 2.25 0 002.332 0l5.25-3.182a2.25 2.25 0 001.084-1.924V5.436a2.25 2.25 0 00-1.084-1.924L9.166.33z" strokewidth="0"/>
</g>
<g id="SVGRepo_tracerCarrier" stroke-linecap="round" stroke-linejoin="round" stroke="#ffffff" stroke-width="0.192">
<defs>
<style>.a{fill:none;stroke:#000000;stroke-linecap:round;stroke-linejoin:round;}</style>
</defs>
<path class="a" d="M41.6783,13.0436H24.77c-1.9628-.1072-5.9311-4.2372-8.1881-4.2372H6.6806V8.8046A2.1762,2.1762,0,0,0,4.5,10.9763v7.3063h39V14.8652A1.8217,1.8217,0,0,0,41.6783,13.0436Z"/>
<path class="a" d="M43.5,18.2826H4.5V37.0165a2.1762,2.1762,0,0,0,2.1735,2.1789H41.3194A2.1762,2.1762,0,0,0,43.5,37.0237V18.2826Z"/>
</g>
<g id="SVGRepo_iconCarrier">
<defs>
<style>.a{fill:none;stroke:#000000;stroke-linecap:round;stroke-linejoin:round;}</style>
</defs>
<path class="a" d="M41.6783,13.0436H24.77c-1.9628-.1072-5.9311-4.2372-8.1881-4.2372H6.6806V8.8046A2.1762,2.1762,0,0,0,4.5,10.9763v7.3063h39V14.8652A1.8217,1.8217,0,0,0,41.6783,13.0436Z"/>
<path class="a" d="M43.5,18.2826H4.5V37.0165a2.1762,2.1762,0,0,0,2.1735,2.1789H41.3194A2.1762,2.1762,0,0,0,43.5,37.0237V18.2826Z"/>
</g>
</svg>